<mxfile host="app.diagrams.net" agent="Mozilla/5.0 (Windows NT 10.0; Win64; x64) AppleWebKit/537.36 (KHTML, like Gecko) Chrome/114.0.0.0 YaBrowser/23.7.1.1266 (corp) Yowser/2.5 Safari/537.36" version="28.2.8">
  <diagram name="Страница — 1" id="mFLcoRJy1Elj75ONB-X1">
    <mxGraphModel dx="1378" dy="796" grid="1" gridSize="10" guides="1" tooltips="1" connect="1" arrows="1" fold="1" page="1" pageScale="1" pageWidth="827" pageHeight="1169" math="0" shadow="0">
      <root>
        <mxCell id="0" />
        <mxCell id="1" parent="0" />
        <mxCell id="WX3rH63sqiEcFXmq7UGs-1" value="" style="rounded=0;whiteSpace=wrap;html=1;" vertex="1" parent="1">
          <mxGeometry x="144" y="180" width="540" height="740" as="geometry" />
        </mxCell>
        <mxCell id="WX3rH63sqiEcFXmq7UGs-2" value="" style="group" vertex="1" connectable="0" parent="1">
          <mxGeometry x="194" y="320" width="460" height="520" as="geometry" />
        </mxCell>
        <mxCell id="WX3rH63sqiEcFXmq7UGs-3" value="" style="rounded=0;whiteSpace=wrap;html=1;" vertex="1" parent="WX3rH63sqiEcFXmq7UGs-2">
          <mxGeometry x="20" y="100" width="120" height="60" as="geometry" />
        </mxCell>
        <mxCell id="WX3rH63sqiEcFXmq7UGs-4" value="&lt;span style=&quot;color: rgba(0, 0, 0, 0); font-family: monospace; font-size: 0px; text-align: start; text-wrap-mode: nowrap;&quot;&gt;%3CmxGraphModel%3E%3Croot%3E%3CmxCell%20id%3D%220%22%2F%3E%3CmxCell%20id%3D%221%22%20parent%3D%220%22%2F%3E%3CmxCell%20id%3D%222%22%20value%3D%22%22%20style%3D%22group%22%20vertex%3D%221%22%20connectable%3D%220%22%20parent%3D%221%22%3E%3CmxGeometry%20x%3D%2290%22%20y%3D%22230%22%20width%3D%22460%22%20height%3D%22520%22%20as%3D%22geometry%22%2F%3E%3C%2FmxCell%3E%3CmxCell%20id%3D%223%22%20value%3D%22%22%20style%3D%22rounded%3D0%3BwhiteSpace%3Dwrap%3Bhtml%3D1%3B%22%20vertex%3D%221%22%20parent%3D%222%22%3E%3CmxGeometry%20x%3D%2220%22%20y%3D%22100%22%20width%3D%22120%22%20height%3D%2260%22%20as%3D%22geometry%22%2F%3E%3C%2FmxCell%3E%3CmxCell%20id%3D%224%22%20value%3D%22%22%20style%3D%22strokeWidth%3D2%3Bhtml%3D1%3Bshape%3Dmxgraph.flowchart.terminator%3BwhiteSpace%3Dwrap%3B%22%20vertex%3D%221%22%20parent%3D%222%22%3E%3CmxGeometry%20x%3D%2230%22%20width%3D%22100%22%20height%3D%2260%22%20as%3D%22geometry%22%2F%3E%3C%2FmxCell%3E%3CmxCell%20id%3D%225%22%20value%3D%22%22%20style%3D%22shape%3Dparallelogram%3Bperimeter%3DparallelogramPerimeter%3BwhiteSpace%3Dwrap%3Bhtml%3D1%3BfixedSize%3D1%3B%22%20vertex%3D%221%22%20parent%3D%222%22%3E%3CmxGeometry%20x%3D%2220%22%20y%3D%22208%22%20width%3D%22120%22%20height%3D%2260%22%20as%3D%22geometry%22%2F%3E%3C%2FmxCell%3E%3CmxCell%20id%3D%226%22%20value%3D%22%22%20style%3D%22shape%3Ddocument%3BwhiteSpace%3Dwrap%3Bhtml%3D1%3BboundedLbl%3D1%3B%22%20vertex%3D%221%22%20parent%3D%222%22%3E%3CmxGeometry%20x%3D%2220%22%20y%3D%22320%22%20width%3D%22120%22%20height%3D%2280%22%20as%3D%22geometry%22%2F%3E%3C%2FmxCell%3E%3CmxCell%20id%3D%227%22%20value%3D%22%22%20style%3D%22rhombus%3BwhiteSpace%3Dwrap%3Bhtml%3D1%3B%22%20vertex%3D%221%22%20parent%3D%222%22%3E%3CmxGeometry%20y%3D%22440%22%20width%3D%22160%22%20height%3D%2280%22%20as%3D%22geometry%22%2F%3E%3C%2FmxCell%3E%3CmxCell%20id%3D%228%22%20value%3D%22%26lt%3Bfont%26gt%3B%D0%9D%D0%B0%D1%87%D0%B0%D0%BB%D0%BE%2F%D0%BA%D0%BE%D0%BD%D0%B5%D1%86%26amp%3Bnbsp%3B%26lt%3B%2Ffont%26gt%3B%22%20style%3D%22text%3Bhtml%3D1%3Balign%3Dleft%3BverticalAlign%3Dmiddle%3BwhiteSpace%3Dwrap%3Brounded%3D0%3BfontSize%3D18%3B%22%20vertex%3D%221%22%20parent%3D%222%22%3E%3CmxGeometry%20x%3D%22180%22%20y%3D%2215%22%20width%3D%22180%22%20height%3D%2230%22%20as%3D%22geometry%22%2F%3E%3C%2FmxCell%3E%3CmxCell%20id%3D%229%22%20value%3D%22%26lt%3Bfont%26gt%3B%D0%9F%D1%80%D0%BE%D0%B8%D0%B7%D0%B2%D0%B5%D0%B4%D0%B5%D0%BD%D0%B8%D0%B5%20%D0%BA%D0%B0%D0%BA%D0%B8%D1%85-%D0%BB%D0%B8%D0%B1%D0%BE%20%D0%B4%D0%B5%D0%B9%D1%81%D1%82%D0%B2%D0%B8%D0%B9%2F%D0%B2%D1%8B%D1%87%D0%B8%D1%81%D0%BB%D0%B5%D0%BD%D0%B8%D0%B9%26lt%3B%2Ffont%26gt%3B%22%20style%3D%22text%3Bhtml%3D1%3Balign%3Dleft%3BverticalAlign%3Dmiddle%3BwhiteSpace%3Dwrap%3Brounded%3D0%3BfontSize%3D18%3B%22%20vertex%3D%221%22%20parent%3D%222%22%3E%3CmxGeometry%20x%3D%22180%22%20y%3D%22115%22%20width%3D%22280%22%20height%3D%2230%22%20as%3D%22geometry%22%2F%3E%3C%2FmxCell%3E%3CmxCell%20id%3D%2210%22%20value%3D%22%26lt%3Bfont%26gt%3B%D0%9E%D0%BF%D0%B5%D1%80%D0%B0%D1%86%D0%B8%D1%8F%20%D0%B2%D0%B2%D0%BE%D0%B4%D0%B0%26lt%3B%2Ffont%26gt%3B%22%20style%3D%22text%3Bhtml%3D1%3Balign%3Dleft%3BverticalAlign%3Dmiddle%3BwhiteSpace%3Dwrap%3Brounded%3D0%3BfontSize%3D18%3B%22%20vertex%3D%221%22%20parent%3D%222%22%3E%3CmxGeometry%20x%3D%22180%22%20y%3D%22223%22%20width%3D%22210%22%20height%3D%2230%22%20as%3D%22geometry%22%2F%3E%3C%2FmxCell%3E%3CmxCell%20id%3D%2211%22%20value%3D%22%26lt%3Bfont%26gt%3B%D0%9E%D0%BF%D0%B5%D1%80%D0%B0%D1%86%D0%B8%D1%8F%20%D0%B2%D1%8B%D0%B2%D0%BE%D0%B4%D0%B0%26lt%3B%2Ffont%26gt%3B%22%20style%3D%22text%3Bhtml%3D1%3Balign%3Dleft%3BverticalAlign%3Dmiddle%3BwhiteSpace%3Dwrap%3Brounded%3D0%3BfontSize%3D18%3B%22%20vertex%3D%221%22%20parent%3D%222%22%3E%3CmxGeometry%20x%3D%22180%22%20y%3D%22339.5%22%20width%3D%22210%22%20height%3D%2230%22%20as%3D%22geometry%22%2F%3E%3C%2FmxCell%3E%3CmxCell%20id%3D%2212%22%20value%3D%22%26lt%3Bfont%26gt%3B%D0%A3%D1%81%D0%BB%D0%BE%D0%B2%D0%BD%D1%8B%D0%B9%20%D0%BE%D0%BF%D0%B5%D1%80%D0%B0%D1%82%D0%BE%D1%80%26lt%3B%2Ffont%26gt%3B%22%20style%3D%22text%3Bhtml%3D1%3Balign%3Dleft%3BverticalAlign%3Dmiddle%3BwhiteSpace%3Dwrap%3Brounded%3D0%3BfontSize%3D18%3B%22%20vertex%3D%221%22%20parent%3D%222%22%3E%3CmxGeometry%20x%3D%22180%22%20y%3D%22465%22%20width%3D%22210%22%20height%3D%2230%22%20as%3D%22geometry%22%2F%3E%3C%2FmxCell%3E%3C%2Froot%3E%3C%2FmxGraphModel%3E&lt;/span&gt;" style="strokeWidth=2;html=1;shape=mxgraph.flowchart.terminator;whiteSpace=wrap;" vertex="1" parent="WX3rH63sqiEcFXmq7UGs-2">
          <mxGeometry x="30" width="100" height="60" as="geometry" />
        </mxCell>
        <mxCell id="WX3rH63sqiEcFXmq7UGs-5" value="" style="shape=parallelogram;perimeter=parallelogramPerimeter;whiteSpace=wrap;html=1;fixedSize=1;" vertex="1" parent="WX3rH63sqiEcFXmq7UGs-2">
          <mxGeometry x="20" y="208" width="120" height="60" as="geometry" />
        </mxCell>
        <mxCell id="WX3rH63sqiEcFXmq7UGs-6" value="" style="shape=document;whiteSpace=wrap;html=1;boundedLbl=1;" vertex="1" parent="WX3rH63sqiEcFXmq7UGs-2">
          <mxGeometry x="20" y="320" width="120" height="80" as="geometry" />
        </mxCell>
        <mxCell id="WX3rH63sqiEcFXmq7UGs-7" value="" style="rhombus;whiteSpace=wrap;html=1;" vertex="1" parent="WX3rH63sqiEcFXmq7UGs-2">
          <mxGeometry y="440" width="160" height="80" as="geometry" />
        </mxCell>
        <mxCell id="WX3rH63sqiEcFXmq7UGs-8" value="&lt;font&gt;Начало/конец&amp;nbsp;&lt;/font&gt;" style="text;html=1;align=left;verticalAlign=middle;whiteSpace=wrap;rounded=0;fontSize=18;" vertex="1" parent="WX3rH63sqiEcFXmq7UGs-2">
          <mxGeometry x="180" y="15" width="180" height="30" as="geometry" />
        </mxCell>
        <mxCell id="WX3rH63sqiEcFXmq7UGs-9" value="&lt;font&gt;Произведение каких-либо действий/вычислений&lt;/font&gt;" style="text;html=1;align=left;verticalAlign=middle;whiteSpace=wrap;rounded=0;fontSize=18;" vertex="1" parent="WX3rH63sqiEcFXmq7UGs-2">
          <mxGeometry x="180" y="115" width="280" height="30" as="geometry" />
        </mxCell>
        <mxCell id="WX3rH63sqiEcFXmq7UGs-10" value="&lt;font&gt;Операция ввода&lt;/font&gt;" style="text;html=1;align=left;verticalAlign=middle;whiteSpace=wrap;rounded=0;fontSize=18;" vertex="1" parent="WX3rH63sqiEcFXmq7UGs-2">
          <mxGeometry x="180" y="223" width="210" height="30" as="geometry" />
        </mxCell>
        <mxCell id="WX3rH63sqiEcFXmq7UGs-11" value="&lt;font&gt;Операция вывода&lt;/font&gt;" style="text;html=1;align=left;verticalAlign=middle;whiteSpace=wrap;rounded=0;fontSize=18;" vertex="1" parent="WX3rH63sqiEcFXmq7UGs-2">
          <mxGeometry x="180" y="339.5" width="210" height="30" as="geometry" />
        </mxCell>
        <mxCell id="WX3rH63sqiEcFXmq7UGs-12" value="&lt;font&gt;Условный оператор&lt;/font&gt;" style="text;html=1;align=left;verticalAlign=middle;whiteSpace=wrap;rounded=0;fontSize=18;" vertex="1" parent="WX3rH63sqiEcFXmq7UGs-2">
          <mxGeometry x="180" y="465" width="210" height="30" as="geometry" />
        </mxCell>
        <mxCell id="WX3rH63sqiEcFXmq7UGs-13" value="&lt;font&gt;&lt;b&gt;Легенда&lt;/b&gt;&lt;/font&gt;" style="text;html=1;align=center;verticalAlign=middle;whiteSpace=wrap;rounded=0;fontSize=28;" vertex="1" parent="1">
          <mxGeometry x="344" y="240" width="120" height="30" as="geometry" />
        </mxCell>
        <mxCell id="WX3rH63sqiEcFXmq7UGs-14" value="" style="strokeWidth=2;html=1;shape=mxgraph.flowchart.start_1;whiteSpace=wrap;" vertex="1" parent="1">
          <mxGeometry x="1160" y="190" width="100" height="60" as="geometry" />
        </mxCell>
        <mxCell id="WX3rH63sqiEcFXmq7UGs-15" value="" style="endArrow=classic;html=1;rounded=0;exitX=0.5;exitY=1;exitDx=0;exitDy=0;exitPerimeter=0;" edge="1" parent="1" source="WX3rH63sqiEcFXmq7UGs-14">
          <mxGeometry width="50" height="50" relative="1" as="geometry">
            <mxPoint x="1210" y="300" as="sourcePoint" />
            <mxPoint x="1210" y="310" as="targetPoint" />
          </mxGeometry>
        </mxCell>
        <mxCell id="WX3rH63sqiEcFXmq7UGs-16" value="ввод number" style="shape=parallelogram;html=1;strokeWidth=2;perimeter=parallelogramPerimeter;whiteSpace=wrap;rounded=1;arcSize=12;size=0.23;" vertex="1" parent="1">
          <mxGeometry x="1145" y="310" width="130" height="60" as="geometry" />
        </mxCell>
        <mxCell id="WX3rH63sqiEcFXmq7UGs-17" value="" style="endArrow=classic;html=1;rounded=0;exitX=0.5;exitY=1;exitDx=0;exitDy=0;exitPerimeter=0;" edge="1" parent="1" target="WX3rH63sqiEcFXmq7UGs-18">
          <mxGeometry width="50" height="50" relative="1" as="geometry">
            <mxPoint x="1209.29" y="370" as="sourcePoint" />
            <mxPoint x="1209.29" y="430" as="targetPoint" />
          </mxGeometry>
        </mxCell>
        <mxCell id="WX3rH63sqiEcFXmq7UGs-18" value="number&amp;gt;999?" style="strokeWidth=2;html=1;shape=mxgraph.flowchart.decision;whiteSpace=wrap;" vertex="1" parent="1">
          <mxGeometry x="1127.5" y="420" width="165" height="100" as="geometry" />
        </mxCell>
        <mxCell id="WX3rH63sqiEcFXmq7UGs-19" style="edgeStyle=orthogonalEdgeStyle;rounded=0;orthogonalLoop=1;jettySize=auto;html=1;exitX=1;exitY=0;exitDx=0;exitDy=0;exitPerimeter=0;" edge="1" parent="1" source="WX3rH63sqiEcFXmq7UGs-20">
          <mxGeometry relative="1" as="geometry">
            <mxPoint x="1319.7142857142858" y="620" as="targetPoint" />
          </mxGeometry>
        </mxCell>
        <mxCell id="WX3rH63sqiEcFXmq7UGs-33" style="edgeStyle=orthogonalEdgeStyle;rounded=0;orthogonalLoop=1;jettySize=auto;html=1;exitX=1;exitY=1;exitDx=0;exitDy=0;exitPerimeter=0;entryX=0.5;entryY=0;entryDx=0;entryDy=0;" edge="1" parent="1" source="WX3rH63sqiEcFXmq7UGs-20" target="WX3rH63sqiEcFXmq7UGs-31">
          <mxGeometry relative="1" as="geometry" />
        </mxCell>
        <mxCell id="WX3rH63sqiEcFXmq7UGs-20" value="" style="strokeWidth=2;html=1;shape=mxgraph.flowchart.annotation_2;align=left;labelPosition=right;pointerEvents=1;rotation=90;" vertex="1" parent="1">
          <mxGeometry x="1185" y="440" width="50" height="220" as="geometry" />
        </mxCell>
        <mxCell id="WX3rH63sqiEcFXmq7UGs-21" value="" style="rounded=0;whiteSpace=wrap;html=1;" vertex="1" parent="1">
          <mxGeometry x="1030" y="582" width="140" height="66" as="geometry" />
        </mxCell>
        <mxCell id="WX3rH63sqiEcFXmq7UGs-22" value="" style="endArrow=classic;html=1;rounded=0;entryX=0.547;entryY=-0.017;entryDx=0;entryDy=0;entryPerimeter=0;exitX=0.5;exitY=1;exitDx=0;exitDy=0;" edge="1" parent="1" target="WX3rH63sqiEcFXmq7UGs-24" source="WX3rH63sqiEcFXmq7UGs-21">
          <mxGeometry width="50" height="50" relative="1" as="geometry">
            <mxPoint x="1100" y="680" as="sourcePoint" />
            <mxPoint x="1120" y="640" as="targetPoint" />
          </mxGeometry>
        </mxCell>
        <mxCell id="WX3rH63sqiEcFXmq7UGs-23" value="&lt;span style=&quot;font-size: 15px;&quot;&gt;Начало&lt;/span&gt;" style="text;html=1;whiteSpace=wrap;strokeColor=none;fillColor=none;align=center;verticalAlign=middle;rounded=0;" vertex="1" parent="1">
          <mxGeometry x="1180" y="205" width="60" height="30" as="geometry" />
        </mxCell>
        <mxCell id="WX3rH63sqiEcFXmq7UGs-24" value="" style="shape=parallelogram;html=1;strokeWidth=2;perimeter=parallelogramPerimeter;whiteSpace=wrap;rounded=1;arcSize=12;size=0.23;" vertex="1" parent="1">
          <mxGeometry x="1020" y="700" width="150" height="60" as="geometry" />
        </mxCell>
        <mxCell id="WX3rH63sqiEcFXmq7UGs-25" value="" style="strokeWidth=2;html=1;shape=mxgraph.flowchart.annotation_2;align=left;labelPosition=right;pointerEvents=1;rotation=-90;" vertex="1" parent="1">
          <mxGeometry x="1185" y="670" width="50" height="230" as="geometry" />
        </mxCell>
        <mxCell id="WX3rH63sqiEcFXmq7UGs-26" value="" style="rounded=0;whiteSpace=wrap;html=1;" vertex="1" parent="1">
          <mxGeometry x="1252.5" y="620" width="140" height="66" as="geometry" />
        </mxCell>
        <mxCell id="WX3rH63sqiEcFXmq7UGs-27" style="edgeStyle=orthogonalEdgeStyle;rounded=0;orthogonalLoop=1;jettySize=auto;html=1;exitX=0.5;exitY=1;exitDx=0;exitDy=0;entryX=1;entryY=1;entryDx=0;entryDy=0;entryPerimeter=0;" edge="1" parent="1" source="WX3rH63sqiEcFXmq7UGs-26" target="WX3rH63sqiEcFXmq7UGs-25">
          <mxGeometry relative="1" as="geometry">
            <Array as="points">
              <mxPoint x="1323" y="760" />
            </Array>
          </mxGeometry>
        </mxCell>
        <mxCell id="WX3rH63sqiEcFXmq7UGs-28" value="" style="strokeWidth=2;html=1;shape=mxgraph.flowchart.start_1;whiteSpace=wrap;" vertex="1" parent="1">
          <mxGeometry x="1160" y="820" width="100" height="60" as="geometry" />
        </mxCell>
        <mxCell id="WX3rH63sqiEcFXmq7UGs-29" value="да" style="text;html=1;whiteSpace=wrap;strokeColor=none;fillColor=none;align=center;verticalAlign=middle;rounded=0;" vertex="1" parent="1">
          <mxGeometry x="1068" y="520" width="60" height="30" as="geometry" />
        </mxCell>
        <mxCell id="WX3rH63sqiEcFXmq7UGs-30" value="нет" style="text;html=1;whiteSpace=wrap;strokeColor=none;fillColor=none;align=center;verticalAlign=middle;rounded=0;" vertex="1" parent="1">
          <mxGeometry x="1292.5" y="520" width="60" height="30" as="geometry" />
        </mxCell>
        <mxCell id="WX3rH63sqiEcFXmq7UGs-31" value="hundreds = number/100%10" style="text;html=1;whiteSpace=wrap;strokeColor=none;fillColor=none;align=center;verticalAlign=middle;rounded=0;" vertex="1" parent="1">
          <mxGeometry x="1030" y="590" width="140" height="50" as="geometry" />
        </mxCell>
        <mxCell id="WX3rH63sqiEcFXmq7UGs-32" style="edgeStyle=orthogonalEdgeStyle;rounded=0;orthogonalLoop=1;jettySize=auto;html=1;exitX=0;exitY=0.5;exitDx=0;exitDy=0;exitPerimeter=0;entryX=0.5;entryY=0;entryDx=0;entryDy=0;entryPerimeter=0;" edge="1" parent="1" source="WX3rH63sqiEcFXmq7UGs-25" target="WX3rH63sqiEcFXmq7UGs-28">
          <mxGeometry relative="1" as="geometry" />
        </mxCell>
        <mxCell id="WX3rH63sqiEcFXmq7UGs-35" value="вывод hundreds" style="text;html=1;whiteSpace=wrap;strokeColor=none;fillColor=none;align=center;verticalAlign=middle;rounded=0;" vertex="1" parent="1">
          <mxGeometry x="1025" y="705" width="140" height="50" as="geometry" />
        </mxCell>
        <mxCell id="WX3rH63sqiEcFXmq7UGs-36" value="ошибка" style="text;html=1;whiteSpace=wrap;strokeColor=none;fillColor=none;align=center;verticalAlign=middle;rounded=0;" vertex="1" parent="1">
          <mxGeometry x="1252.5" y="628" width="140" height="50" as="geometry" />
        </mxCell>
        <mxCell id="WX3rH63sqiEcFXmq7UGs-37" value="конец" style="text;html=1;whiteSpace=wrap;strokeColor=none;fillColor=none;align=center;verticalAlign=middle;rounded=0;" vertex="1" parent="1">
          <mxGeometry x="1140" y="825" width="140" height="50" as="geometry" />
        </mxCell>
      </root>
    </mxGraphModel>
  </diagram>
</mxfile>
